<?xml version="1.0" encoding="utf-8"?>
<!-- Generator: Adobe Illustrator 26.3.1, SVG Export Plug-In . SVG Version: 6.00 Build 0)  -->
<svg version="1.1" id="Layer_1" xmlns="http://www.w3.org/2000/svg" xmlns:xlink="http://www.w3.org/1999/xlink" x="0px" y="0px"
	 viewBox="0 0 612 792" style="enable-background:new 0 0 612 792;" xml:space="preserve">
<style type="text/css">
	.st0{opacity:0.39;fill:none;stroke:#000000;stroke-miterlimit:10;}
	.st1{fill:#231F20;stroke:#000000;stroke-miterlimit:10;}
	.st2{stroke:#000000;stroke-miterlimit:10;}
</style>
<circle class="st0" cx="309.5" cy="333.5" r="288.5"/>
<g>
	<path class="st1" d="M381.6,76L152,159.5c-26.4,9.6-40,38.8-30.4,65.2l7.9,21.8c1.1,3.1,4.5,4.6,7.5,3.5l3.9-1.4l306.4-111.5
		l3.9-1.4c3-1.1,4.6-4.5,3.5-7.5l-8-21.8C437.2,80,408,66.4,381.6,76z M438.3,129.4L142.9,236.9c-3.1,1.1-6.4-0.5-7.5-3.5l-1-2.6
		c-9.6-26.4,4-55.6,30.4-65.2l210.8-76.7c26.4-9.6,55.6,4,65.2,30.4l1,2.6C442.9,124.9,441.4,128.3,438.3,129.4z"/>
	<ellipse transform="matrix(0.9397 -0.342 0.342 0.9397 -50.0772 71.9843)" class="st1" cx="179.1" cy="178" rx="3.6" ry="1.7"/>
	<ellipse transform="matrix(0.9397 -0.342 0.342 0.9397 -27.2534 126.4289)" class="st1" cx="344.9" cy="140.5" rx="3.6" ry="1.7"/>
	<ellipse transform="matrix(0.9397 -0.342 0.342 0.9397 -48.0767 90.3214)" class="st1" cx="232.1" cy="181.5" rx="3.6" ry="1.7"/>
	<ellipse transform="matrix(0.9397 -0.342 0.342 0.9397 -11.6614 137.4672)" class="st1" cx="384" cy="101.8" rx="3.6" ry="1.7"/>
	<ellipse transform="matrix(0.9397 -0.342 0.342 0.9397 -31.6444 104.9171)" class="st1" cx="281.7" cy="142.2" rx="3.6" ry="1.7"/>
</g>
<polygon class="st2" points="98.7,520.4 116.7,526.9 130.6,502.9 179.9,367.6 152.8,357.7 103.4,493.4 "/>
<polygon class="st2" points="501.5,526.9 519.5,520.4 514.7,493 465.5,357.7 438.4,367.6 487.7,503.2 "/>
<polygon class="st2" points="299.5,535.7 318.6,535.7 323.5,508.3 323.5,364.3 294.7,364.3 294.7,508.7 "/>
<path class="st1" d="M492.5,288.2h-11.3c-1.2,0-2.3-1-2.3-2.3V280c0-1.2-1-2.3-2.3-2.3h-7.7H142.8h-7.7c-1.2,0-2.3,1-2.3,2.3v5.9
	c0,1.2-1,2.3-2.3,2.3h-11.4c-1.2,0-2.3,1-2.3,2.3v35.8c0,1.2,1,2.3,2.3,2.3h15c0.9,0,1.8,0.6,2.1,1.4c6.8,16.3,22.8,27.8,41.6,27.8
	h256.1c18.8,0,34.9-11.5,41.6-27.8c0.4-0.9,1.2-1.4,2.1-1.4h14.9c1.2,0,2.3-1,2.3-2.3v-35.8C494.7,289.2,493.7,288.2,492.5,288.2z
	 M123.5,316.7v-16.8c0-1.2,1-2.3,2.3-2.3h4.8c1.2,0,2.3,1,2.3,2.3v12.8c0,1.3,0.1,2.5,0.2,3.8c0.1,1.3-0.9,2.5-2.2,2.5h-5
	C124.5,319,123.5,318,123.5,316.7z M423.9,347.7H187.8c-19.9,0-36.8-12.9-42.7-30.9c-0.1-0.2-0.1-0.5-0.1-0.7v-25.7
	c0-1.2,1-2.3,2.3-2.3H469l0,0l0,0c-1.2,0-2.3,1-2.3,2.3v26c0,0.3,0,0.5-0.1,0.8C460.5,335,443.7,347.7,423.9,347.7z M485.9,319H481
	c-1.3,0-2.4-1.1-2.2-2.5c0.1-1.2,0.2-2.5,0.2-3.8v-12.8c0-1.2,1-2.3,2.3-2.3h4.7c1.2,0,2.3,1,2.3,2.3v16.8
	C488.1,318,487.1,319,485.9,319z"/>
<g>
	<path d="M203.5,249.7c1.5,0,2.9,0,4.2,0c2.3,0,4.1,0,5.4,0c-0.1,1.7-0.3,4.1-0.4,7.3c-0.1,3.1-0.2,5.5-0.3,7.1
		c-1.2,0.3-2.3,0.5-3.1,0.6c-0.8,0.1-1.8,0.2-2.9,0.3c-1.1,0.1-2.2,0.1-3.1,0.1c-1.5,0-2.9-0.1-4.3-0.4c-1.4-0.3-2.7-0.7-3.8-1.3
		c-1.1-0.6-2-1.4-2.8-2.5c-0.7-1-1.3-2.3-1.7-3.7c-0.4-1.4-0.6-2.9-0.6-4.5c0-2.5,0.5-4.9,1.6-7.1c1.1-2.2,2.6-3.9,4.7-5.2
		c2-1.3,4.7-1.9,7.9-1.9c2.4,0,5,0.3,7.8,1c0,1.8,0.1,3.9,0.2,6.1c-0.8-0.3-1.4-0.5-1.9-0.7c-0.5-0.2-1-0.3-1.7-0.4
		c-0.6-0.1-1.2-0.2-1.8-0.3c-0.6-0.1-1.1-0.1-1.5-0.1c-1.2,0-2.3,0.2-3.4,0.6c-1.1,0.4-2,1-2.7,1.8c-0.8,0.8-1.3,1.8-1.7,2.9
		c-0.4,1.1-0.6,2.3-0.6,3.6c0,1.3,0.2,2.4,0.6,3.4c0.4,1,1.1,1.8,2,2.3s2,0.8,3.1,0.8c1,0,2-0.2,3.1-0.5l0.2-4.1
		c-0.7,0-1.1-0.1-1.2-0.1l-1.7,0l0.1-2.3c0-0.2,0-0.6,0-1.1C203.5,251.1,203.5,250.5,203.5,249.7z"/>
	<path d="M217.7,250.9c0.2-1.2,0.3-2.1,0.4-2.6c0.1-0.5,0.1-1.2,0.3-2.2c3.1-0.8,5.8-1.2,8-1.2c1.3,0,2.4,0.2,3.5,0.5
		c1.1,0.3,1.9,0.9,2.5,1.6s0.9,1.8,0.9,3.2c0,0.7-0.1,2.3-0.2,4.7s-0.3,5.7-0.4,9.6c-1.1,0-2.1,0-3.1,0c-1,0-2.1,0-3.2,0
		c0.1-1.4,0.3-4.2,0.5-8.5c-0.4,0.2-0.7,0.4-1,0.5c-0.2,0.1-0.6,0.2-1.2,0.4c-0.6,0.2-1,0.4-1.4,0.5c-0.3,0.1-0.6,0.3-0.9,0.5
		c-0.2,0.2-0.4,0.4-0.5,0.7c-0.1,0.2-0.2,0.5-0.2,0.7c0,0.4,0.1,0.8,0.4,1.1c0.3,0.3,0.8,0.4,1.4,0.4c0.2,0,0.5,0,0.7-0.1
		s0.6-0.2,1.1-0.3c-0.3,1-0.7,2.4-1.1,4.2c-0.9,0.2-1.8,0.3-2.6,0.3c-1.3,0-2.4-0.2-3.3-0.6c-0.9-0.4-1.6-1.1-2-2.1
		c-0.5-1-0.7-1.9-0.7-2.9c0-0.6,0.1-1.2,0.3-1.7c0.2-0.6,0.5-1.1,0.8-1.6c0.4-0.5,0.8-1,1.3-1.4c0.5-0.4,1.2-0.7,2.1-1.1
		c0.9-0.3,2-0.7,3.3-1c0.6-0.1,1.1-0.3,1.5-0.4c0.5-0.1,0.8-0.3,1-0.4s0.4-0.2,0.5-0.4c0.1-0.1,0.2-0.3,0.3-0.4
		c0.1-0.2,0.1-0.3,0.1-0.5c0-0.5-0.2-0.8-0.5-1.1c-0.3-0.3-0.8-0.4-1.5-0.4C222.7,249.1,220.4,249.7,217.7,250.9z"/>
	<path d="M236.2,264.6l0.5-9l0.3-7.1l0-3c1.2,0,2.2,0,3.1,0c1,0,2,0,3,0l-0.1,2.5c0.3-0.5,0.6-0.9,0.8-1.2c0.2-0.3,0.5-0.5,0.8-0.8
		c0.3-0.2,0.7-0.4,1-0.6c0.4-0.1,0.8-0.3,1.2-0.3s0.9-0.1,1.4-0.1c0.5,0,1.1,0.1,1.5,0.2s0.9,0.2,1.2,0.4c0.3,0.2,0.6,0.3,0.9,0.6
		s0.5,0.5,0.7,0.7c0.2,0.3,0.4,0.7,0.7,1.2c0.5-0.8,1-1.4,1.5-1.8c0.5-0.4,1.1-0.7,1.8-0.9c0.7-0.2,1.4-0.3,2.1-0.3
		c0.9,0,1.8,0.2,2.6,0.5c0.8,0.3,1.5,0.9,2,1.6c0.5,0.8,0.8,1.8,0.8,3c0,0.6,0,1.4-0.1,2.6c-0.1,1.2-0.2,3.2-0.3,6
		c-0.1,2.8-0.2,4.8-0.2,6c-1,0-1.9,0-2.9,0c-1.1,0-2.3,0-3.5,0c0.1-1.6,0.2-3.6,0.3-6c0.1-2.4,0.2-4.1,0.2-5c0-0.8-0.1-1.4-0.2-1.8
		c-0.2-0.4-0.4-0.7-0.6-0.8c-0.3-0.1-0.5-0.2-0.8-0.2c-0.3,0-0.6,0.1-0.8,0.2c-0.3,0.2-0.5,0.4-0.7,0.7c-0.3,0.4-0.5,0.9-0.6,1.6
		c-0.1,0.5-0.2,1.2-0.3,2.2c-0.1,1-0.1,2.4-0.2,4l-0.1,5c-1.2,0-2.2,0-3.1,0c-0.9,0-2.1,0-3.3,0c0.1-1.1,0.2-3,0.3-5.6
		c0.1-2.6,0.2-4.4,0.2-5.3c0-0.7-0.1-1.3-0.2-1.7c-0.1-0.4-0.3-0.7-0.5-0.9s-0.5-0.3-0.9-0.3c-0.4,0-0.8,0.1-1.1,0.4
		s-0.6,0.7-0.8,1.2c-0.2,0.5-0.4,1.3-0.5,2.2c-0.1,0.9-0.2,2.4-0.3,4.3c-0.1,1.9-0.1,3.8-0.1,5.6c-1.3,0-2.4,0-3.2,0
		C238.7,264.5,237.6,264.5,236.2,264.6z"/>
	<path d="M283,258.9c-0.1,0.7-0.4,2.6-0.8,5.4c-1.2,0.3-2.3,0.5-3.1,0.6c-0.8,0.1-1.7,0.1-2.6,0.1c-1.3,0-2.5-0.1-3.5-0.3
		c-1.1-0.2-2-0.6-2.8-1.1c-0.8-0.5-1.4-1.2-2-2s-0.9-1.7-1.2-2.8c-0.3-1.1-0.4-2.2-0.4-3.3c0-1.6,0.3-3.2,0.8-4.7
		c0.5-1.5,1.3-2.7,2.1-3.6s1.9-1.5,3-1.8c1.1-0.4,2.3-0.5,3.5-0.5c1.2,0,2.4,0.2,3.5,0.5c1.1,0.3,2.1,0.9,2.8,1.7
		c0.8,0.8,1.3,1.8,1.7,2.8c0.3,1,0.5,2.2,0.5,3.4c0,0.7-0.1,1.5-0.2,2.4l-11.3,0c0,0.2,0,0.4,0,0.5c0,1.3,0.4,2.3,1.2,3
		c0.8,0.6,1.8,1,3,1c0.7,0,1.5-0.1,2.4-0.3S281.6,259.4,283,258.9z M273,252.9h5.3c0-0.2,0-0.4,0-0.5c0-0.6-0.1-1.2-0.3-1.7
		s-0.5-0.8-0.9-1c-0.4-0.2-0.8-0.3-1.3-0.3c-0.3,0-0.6,0.1-0.9,0.2s-0.6,0.3-0.8,0.5s-0.4,0.5-0.6,0.8c-0.2,0.3-0.3,0.6-0.4,0.9
		C273.2,252,273.1,252.4,273,252.9z"/>
	<path d="M295,264.6c0.2-2.8,0.4-5.1,0.5-6.8c0.1-2.5,0.3-5.8,0.4-9.9c0.1-3.1,0.1-5.3,0.1-6.7V239c1.3,0,2.3,0.1,3.3,0.1
		c0.9,0,2,0,3.5-0.1c1.4-0.1,2.8-0.1,4-0.1c1.4,0,2.7,0.1,3.8,0.3c1.1,0.2,2.1,0.6,3,1.2c0.9,0.6,1.7,1.4,2.4,2.5s1.1,2.2,1.5,3.6
		c0.3,1.4,0.5,2.8,0.5,4.2c0,1.4-0.1,2.8-0.4,4.1s-0.6,2.5-1.1,3.5s-1,2-1.6,2.7s-1.3,1.4-2.1,1.9c-0.6,0.4-1.2,0.7-1.8,0.9
		s-1.4,0.4-2.5,0.5c-1.2,0.1-2.5,0.2-4,0.2l-6.5-0.1C297.4,264.5,296.4,264.5,295,264.6z M302,258.9c0.6,0.1,1.2,0.1,1.9,0.1
		c1.1,0,2.1-0.1,2.9-0.3c0.9-0.2,1.6-0.7,2.3-1.4c0.6-0.7,1.1-1.7,1.4-2.8c0.3-1.2,0.5-2.3,0.5-3.6c0-1.5-0.2-2.7-0.7-3.8
		c-0.5-1-1.1-1.7-1.8-2.1c-0.8-0.4-1.8-0.6-3.1-0.6c-0.8,0-1.7,0-2.7,0.1L302,258.9z"/>
	<path d="M321.9,250.9c0.2-1.2,0.3-2.1,0.4-2.6c0.1-0.5,0.1-1.2,0.3-2.2c3.1-0.8,5.8-1.2,8-1.2c1.3,0,2.4,0.2,3.5,0.5
		c1.1,0.3,1.9,0.9,2.5,1.6c0.6,0.7,0.9,1.8,0.9,3.2c0,0.7-0.1,2.3-0.2,4.7s-0.3,5.7-0.4,9.6c-1.1,0-2.1,0-3.1,0c-1,0-2.1,0-3.2,0
		c0.1-1.4,0.3-4.2,0.5-8.5c-0.4,0.2-0.7,0.4-1,0.5c-0.2,0.1-0.6,0.2-1.2,0.4c-0.6,0.2-1,0.4-1.4,0.5c-0.3,0.1-0.6,0.3-0.9,0.5
		c-0.2,0.2-0.4,0.4-0.5,0.7c-0.1,0.2-0.2,0.5-0.2,0.7c0,0.4,0.1,0.8,0.4,1.1c0.3,0.3,0.8,0.4,1.4,0.4c0.2,0,0.5,0,0.7-0.1
		c0.3,0,0.6-0.2,1.1-0.3c-0.3,1-0.7,2.4-1.1,4.2c-0.9,0.2-1.8,0.3-2.6,0.3c-1.3,0-2.4-0.2-3.3-0.6c-0.9-0.4-1.6-1.1-2-2.1
		c-0.5-1-0.7-1.9-0.7-2.9c0-0.6,0.1-1.2,0.3-1.7s0.5-1.1,0.8-1.6c0.4-0.5,0.8-1,1.3-1.4s1.2-0.7,2.1-1.1c0.9-0.3,2-0.7,3.3-1
		c0.6-0.1,1.1-0.3,1.5-0.4c0.5-0.1,0.8-0.3,1-0.4c0.2-0.1,0.4-0.2,0.5-0.4c0.1-0.1,0.2-0.3,0.3-0.4s0.1-0.3,0.1-0.5
		c0-0.5-0.2-0.8-0.5-1.1c-0.3-0.3-0.8-0.4-1.5-0.4C326.9,249.1,324.6,249.7,321.9,250.9z"/>
	<path d="M339,273.1c-0.3-3-0.6-4.8-0.7-5.6c0.7,0.4,1.3,0.6,1.8,0.8c0.5,0.1,1,0.2,1.3,0.2c0.4,0,0.8-0.1,1.1-0.2
		c0.3-0.1,0.6-0.3,0.8-0.5s0.4-0.5,0.7-0.8s0.4-0.7,0.5-1c0.1-0.3,0.2-0.7,0.4-1.2l-3-10.7l-2.6-8.8c1.6,0,2.7,0,3.4,0
		c0.8,0,1.8,0,3.1,0c0.2,1,0.6,2.6,1.1,5c0.6,2.4,1,4.2,1.2,5.5c0.1,0.7,0.3,1.7,0.4,2.8l0.3-1.5c0.1-0.4,0.2-0.9,0.4-1.4
		c0.1-0.5,0.3-1.1,0.5-1.8l1-3.4l1.7-5.2c1.3,0,2.4,0,3,0c0.6,0,1.7,0,3.2,0l-3.1,8.2l-5.6,15.2c-0.4,0.8-0.7,1.5-1.1,2
		c-0.3,0.4-0.7,0.8-1,1.2c-0.3,0.3-0.7,0.6-1.1,0.8c-0.5,0.3-1.1,0.5-1.8,0.7c-0.7,0.2-1.4,0.3-2.2,0.3c-0.3,0-0.8,0-1.3-0.1
		c-0.5-0.1-1-0.1-1.3-0.2C340,273.4,339.6,273.3,339,273.1z"/>
	<path d="M381.3,249.7c1.5,0,2.9,0,4.2,0c2.3,0,4.1,0,5.4,0c-0.1,1.7-0.3,4.1-0.4,7.3c-0.1,3.1-0.2,5.5-0.3,7.1
		c-1.2,0.3-2.3,0.5-3.1,0.6c-0.8,0.1-1.8,0.2-2.9,0.3c-1.1,0.1-2.2,0.1-3.1,0.1c-1.5,0-2.9-0.1-4.3-0.4s-2.7-0.7-3.8-1.3
		c-1.1-0.6-2-1.4-2.8-2.5c-0.7-1-1.3-2.3-1.7-3.7c-0.4-1.4-0.6-2.9-0.6-4.5c0-2.5,0.5-4.9,1.6-7.1c1.1-2.2,2.6-3.9,4.7-5.2
		c2-1.3,4.7-1.9,7.9-1.9c2.4,0,5,0.3,7.8,1c0,1.8,0.1,3.9,0.2,6.1c-0.8-0.3-1.4-0.5-1.9-0.7s-1-0.3-1.7-0.4
		c-0.6-0.1-1.2-0.2-1.8-0.3c-0.6-0.1-1.1-0.1-1.5-0.1c-1.2,0-2.3,0.2-3.4,0.6c-1.1,0.4-2,1-2.7,1.8c-0.8,0.8-1.3,1.8-1.7,2.9
		c-0.4,1.1-0.6,2.3-0.6,3.6c0,1.3,0.2,2.4,0.6,3.4c0.4,1,1.1,1.8,2,2.3c0.9,0.5,2,0.8,3.1,0.8c1,0,2-0.2,3.1-0.5l0.2-4.1
		c-0.7,0-1.1-0.1-1.2-0.1l-1.7,0l0.1-2.3c0-0.2,0-0.6,0-1.1C381.3,251.1,381.3,250.5,381.3,249.7z"/>
	<path d="M394,264.6l0.5-8.3l0.2-4.8c0-0.9,0-1.7,0-2.6c0-0.9,0-2,0-3.4c1.3,0,2.3,0,3.1,0c0.9,0,1.9,0,3.1,0l-0.1,2.1
		c0.4-0.5,0.8-1,1-1.2c0.3-0.3,0.6-0.5,0.9-0.7c0.3-0.2,0.7-0.4,1.1-0.5c0.4-0.1,0.8-0.2,1.2-0.2c0.4,0,0.8,0.1,1.3,0.2
		c0,1.4,0,2.5,0.1,3.4l0.1,2.9c-0.6-0.2-1.1-0.3-1.7-0.3c-0.6,0-1.2,0.1-1.7,0.3c-0.5,0.2-0.9,0.5-1.2,1c-0.4,0.4-0.6,1-0.9,1.7
		c-0.2,0.7-0.4,1.7-0.5,3.1c-0.1,1.4-0.1,3.1-0.1,4.9c0,0.6,0,1.5,0.1,2.4c-1,0-2.1,0-3.1,0C396.3,264.5,395.2,264.5,394,264.6z"/>
	<path d="M408.1,264.6c0.1-1.5,0.3-2.8,0.3-3.8c0.1-1,0.1-2.2,0.2-3.8c0.1-1.5,0.1-3.2,0.2-5.1c0.1-1.9,0.1-4,0.1-6.5
		c1.4,0,2.5,0,3.4,0c0.8,0,1.9,0,3.3,0c-0.2,2.4-0.3,4.4-0.4,6.2c-0.1,1.8-0.1,3.7-0.2,5.7c0,3.5-0.1,6-0.1,7.2c-1.3,0-2.4,0-3.3,0
		C410.8,264.5,409.6,264.5,408.1,264.6z M409.1,243c0.1-1.5,0.1-2.7,0.1-3.5c0-0.2,0-0.6,0-1c1.3,0,2.4,0,3.3,0c1.2,0,2.3,0,3.2,0
		c0,0.4-0.1,0.7-0.1,1l-0.1,2.3c0,0.3,0,0.8,0,1.2c-1.1,0-2.1,0-3.1,0C411.4,243,410.3,243,409.1,243z"/>
	<path d="M418.5,264.6l0.3-4l0.6-14l0.2-7.5c1.5,0,2.6,0,3.4,0c1,0,2.1,0,3.2,0l-0.4,5.8l-0.6,14.2l-0.1,5.7c-1.2,0-2.2,0-3.1,0
		L418.5,264.6z"/>
	<path d="M428.7,264.6l0.3-4l0.6-14l0.2-7.5c1.5,0,2.6,0,3.4,0c1,0,2.1,0,3.2,0l-0.4,5.8l-0.6,14.2l-0.1,5.7c-1.2,0-2.2,0-3.1,0
		L428.7,264.6z"/>
</g>
</svg>
