<?xml version="1.0" encoding="utf-8"?>
<!-- Generator: Adobe Illustrator 26.3.1, SVG Export Plug-In . SVG Version: 6.00 Build 0)  -->
<svg version="1.1" id="Layer_1" xmlns="http://www.w3.org/2000/svg" xmlns:xlink="http://www.w3.org/1999/xlink" x="0px" y="0px"
	 viewBox="0 0 612 792" style="enable-background:new 0 0 612 792;" xml:space="preserve">
<style type="text/css">
	.st0{stroke:#000000;stroke-miterlimit:10;}
</style>
<g>
	<path class="st0" d="M390.63,75.98l-229.59,83.56c-26.41,9.61-40.02,38.81-30.41,65.22l7.95,21.83c1.11,3.05,4.49,4.63,7.54,3.52
		l3.87-1.41l306.42-111.53l3.87-1.41c3.05-1.11,4.63-4.49,3.52-7.54l-7.95-21.83C446.24,79.98,417.04,66.37,390.63,75.98z
		 M447.32,129.38L151.95,236.88c-3.05,1.11-6.43-0.46-7.54-3.52l-0.96-2.63c-9.61-26.41,4-55.61,30.41-65.22L384.66,88.8
		c26.41-9.61,55.61,4,65.22,30.41l0.96,2.63C451.94,124.89,450.37,128.26,447.32,129.38z"/>
	
		<ellipse transform="matrix(0.9397 -0.342 0.342 0.9397 -49.5298 75.0837)" class="st0" cx="188.14" cy="177.99" rx="3.6" ry="1.67"/>
	
		<ellipse transform="matrix(0.9397 -0.342 0.342 0.9397 -26.7049 129.5083)" class="st0" cx="353.88" cy="140.48" rx="3.6" ry="1.67"/>
	
		<ellipse transform="matrix(0.9397 -0.342 0.342 0.9397 -47.5429 93.4161)" class="st0" cx="241.12" cy="181.52" rx="3.6" ry="1.67"/>
	<ellipse transform="matrix(0.9397 -0.342 0.342 0.9397 -11.1047 140.5528)" class="st0" cx="393" cy="101.76" rx="3.6" ry="1.67"/>
	
		<ellipse transform="matrix(0.9397 -0.342 0.342 0.9397 -31.1085 107.9892)" class="st0" cx="290.66" cy="142.21" rx="3.6" ry="1.67"/>
</g>
<g>
	<path d="M210.5,259.65h-1.97v-4.61h8.61c0,2.65-0.15,4.63-0.44,5.92c-0.29,1.25-0.89,2.51-1.8,3.79c-0.9,1.27-1.98,2.19-3.25,2.78
		s-2.64,0.87-4.1,0.87c-2.17,0-4.14-0.45-5.91-1.36c-1.78-0.88-3.16-2.35-4.12-4.4c-0.98-2.01-1.47-4.27-1.47-6.77
		c0-3.78,0.99-6.83,2.96-9.15c1.96-2.32,4.36-3.47,7.2-3.47c2.37,0,4.23,0.73,5.58,2.18v-1.69h4.64v8.49h-4.64
		c-0.41-1.05-0.93-1.84-1.58-2.37c-0.65-0.54-1.41-0.8-2.28-0.8c-1.22,0-2.11,0.5-2.69,1.5c-0.56,1-0.84,2.84-0.84,5.52
		c0,2.67,0.3,4.48,0.89,5.43c0.6,0.97,1.47,1.45,2.62,1.45C209.63,262.93,210.5,261.84,210.5,259.65z"/>
	<path d="M225.17,255.81l-5.45-0.7c0.6-1.66,1.57-2.83,2.91-3.51c1.32-0.68,3.27-1.01,5.84-1.01c0.95,0,1.8,0.04,2.55,0.11
		c0.75,0.08,1.42,0.19,2.01,0.34c1.23,0.29,2.14,0.74,2.73,1.34c0.59,0.62,1,1.28,1.23,1.99c0.24,0.73,0.36,1.87,0.36,3.42v4.89
		h1.72v5.33h-8.68v-1.15c-1.2,0.98-2.81,1.47-4.82,1.47c-1.89,0-3.32-0.52-4.28-1.57c-0.97-1.05-1.45-2.29-1.45-3.72
		c0-1.58,0.6-2.88,1.79-3.89c1.18-1.01,2.72-1.52,4.62-1.52c1.73,0,3.11,0.29,4.14,0.86v-0.51c0-1.05-0.06-1.78-0.18-2.2
		c-0.13-0.44-0.42-0.82-0.86-1.13c-0.46-0.3-1-0.45-1.61-0.45C226.63,254.19,225.77,254.73,225.17,255.81z M230.39,263.68v-3.09
		c-0.62-0.42-1.27-0.63-1.97-0.63c-0.61,0-1.09,0.21-1.45,0.63c-0.36,0.43-0.54,0.98-0.54,1.64c0,0.69,0.18,1.25,0.55,1.68
		c0.38,0.44,0.81,0.66,1.3,0.66C229.15,264.57,229.85,264.28,230.39,263.68z"/>
	<path d="M251.62,268.01H241.1v-5.33h1.66v-6.29h-1.69v-5.33h8.66v2.32c0.66-0.71,1.54-1.33,2.62-1.85
		c1.07-0.52,2.09-0.79,3.07-0.79c2.28,0,3.81,1.11,4.58,3.32c2.06-2.21,4.16-3.32,6.3-3.32c1.17,0,2.14,0.31,2.89,0.94
		c0.78,0.64,1.32,1.49,1.63,2.55c0.32,1.09,0.48,2.63,0.48,4.61v3.82h1.77v5.33h-8.73v-7.28c0-1.9-0.12-3.08-0.35-3.54
		c-0.23-0.47-0.65-0.7-1.25-0.7c-0.76,0-1.52,0.36-2.28,1.08v5.12h1.9v5.33h-8.86v-7.25c0-1.86-0.1-3.04-0.3-3.54
		c-0.2-0.49-0.61-0.73-1.23-0.73c-0.71,0-1.46,0.36-2.24,1.08v5.12h1.88V268.01z"/>
	<path d="M286.3,262.65l5.74,0.89c-0.26,0.76-0.62,1.44-1.08,2.03c-0.46,0.6-1.02,1.12-1.69,1.56c-1.34,0.91-2.94,1.36-4.8,1.36
		c-3.13,0-5.48-0.82-7.06-2.46c-1.58-1.63-2.37-3.77-2.37-6.41c0-2.58,0.78-4.74,2.34-6.46c1.54-1.72,3.63-2.58,6.27-2.58
		c2.54,0,4.6,0.81,6.2,2.44c1.57,1.62,2.4,4.08,2.51,7.39h-10.57c0.03,2.75,0.84,4.12,2.44,4.12
		C285.19,264.54,285.88,263.91,286.3,262.65z M281.87,258.22h3.92c0.02-0.35,0.03-0.55,0.03-0.59c0-0.92-0.18-1.68-0.55-2.29
		c-0.37-0.59-0.86-0.89-1.47-0.89c-0.63,0-1.11,0.33-1.44,0.98c-0.33,0.66-0.5,1.48-0.5,2.44
		C281.86,258,281.87,258.11,281.87,258.22z"/>
	<path d="M311.11,268.01h-8.95v-5.81h1.51v-12.66h-1.51v-5.81h9.22c2.1,0,3.82,0.16,5.15,0.49c1.34,0.33,2.6,1,3.78,2.01
		c1.17,1.02,2.1,2.41,2.77,4.16c0.33,0.84,0.59,1.73,0.76,2.69c0.18,0.95,0.26,1.96,0.26,3c0,2.11-0.36,4.03-1.07,5.76
		c-0.7,1.72-1.59,3.04-2.67,3.96c-1.05,0.92-2.2,1.52-3.46,1.8C315.65,267.88,313.72,268.01,311.11,268.01z M311.11,249.54v12.66
		h0.71c1.75,0,2.89-0.59,3.42-1.76c0.52-1.18,0.78-2.65,0.78-4.44c0-1.07-0.11-2.13-0.33-3.18c-0.23-1.05-0.64-1.86-1.22-2.43
		c-0.57-0.57-1.6-0.86-3.07-0.86H311.11z"/>
	<path d="M332.07,255.81l-5.45-0.7c0.6-1.66,1.57-2.83,2.91-3.51c1.32-0.68,3.27-1.01,5.84-1.01c0.95,0,1.8,0.04,2.55,0.11
		c0.75,0.08,1.42,0.19,2.01,0.34c1.23,0.29,2.14,0.74,2.73,1.34c0.59,0.62,1,1.28,1.23,1.99c0.24,0.73,0.36,1.87,0.36,3.42v4.89
		h1.72v5.33h-8.68v-1.15c-1.2,0.98-2.81,1.47-4.82,1.47c-1.89,0-3.32-0.52-4.28-1.57c-0.97-1.05-1.45-2.29-1.45-3.72
		c0-1.58,0.6-2.88,1.78-3.89c1.18-1.01,2.72-1.52,4.62-1.52c1.73,0,3.11,0.29,4.14,0.86v-0.51c0-1.05-0.06-1.78-0.18-2.2
		c-0.13-0.44-0.41-0.82-0.86-1.13c-0.46-0.3-1-0.45-1.61-0.45C333.53,254.19,332.67,254.73,332.07,255.81z M337.29,263.68v-3.09
		c-0.62-0.42-1.27-0.63-1.97-0.63c-0.61,0-1.09,0.21-1.45,0.63c-0.36,0.43-0.54,0.98-0.54,1.64c0,0.69,0.18,1.25,0.55,1.68
		c0.38,0.44,0.81,0.66,1.3,0.66C336.06,264.57,336.76,264.28,337.29,263.68z"/>
	<path d="M355.59,275.78h-5.87v-5.15h2.26l0.68-1.73l-5.15-12.5h-1.04v-5.33h9.15v5.33h-1.48l2.34,6.65l2.16-6.65h-1.3v-5.33h6.93
		v5.33h-1.34L355.59,275.78z"/>
	<path d="M387.7,259.65h-1.97v-4.61h8.61c0,2.65-0.15,4.63-0.44,5.92c-0.29,1.25-0.89,2.51-1.8,3.79c-0.9,1.27-1.98,2.19-3.25,2.78
		s-2.64,0.87-4.1,0.87c-2.17,0-4.14-0.45-5.91-1.36c-1.78-0.88-3.16-2.35-4.12-4.4c-0.98-2.01-1.47-4.27-1.47-6.77
		c0-3.78,0.99-6.83,2.96-9.15c1.96-2.32,4.36-3.47,7.2-3.47c2.37,0,4.23,0.73,5.58,2.18v-1.69h4.64v8.49h-4.64
		c-0.41-1.05-0.93-1.84-1.59-2.37c-0.65-0.54-1.41-0.8-2.28-0.8c-1.22,0-2.11,0.5-2.69,1.5c-0.56,1-0.84,2.84-0.84,5.52
		c0,2.67,0.3,4.48,0.89,5.43c0.6,0.97,1.47,1.45,2.62,1.45C386.83,262.93,387.7,261.84,387.7,259.65z"/>
	<path d="M407.53,268.01h-10.82v-5.33h1.83v-6.29h-1.83v-5.33h8.33v4.24c0.31-1.06,0.8-1.97,1.45-2.74
		c0.63-0.76,1.26-1.25,1.91-1.48c0.62-0.22,1.53-0.33,2.73-0.33v7.46c-0.16-0.01-0.35-0.02-0.58-0.02c-1.42,0-2.48,0.18-3.17,0.54
		c-0.72,0.37-1.21,0.86-1.47,1.47c-0.27,0.63-0.41,1.46-0.41,2.48h2.03V268.01z"/>
	<path d="M422.37,268.01h-9.51v-5.33h1.38v-6.29h-1.38v-5.33h8.35v11.61h1.16V268.01z M413.67,246.29c0-0.92,0.37-1.66,1.12-2.22
		c0.74-0.56,1.65-0.84,2.74-0.84c1.12,0,2.02,0.29,2.7,0.87c0.67,0.59,1.01,1.32,1.01,2.17c0,0.92-0.35,1.65-1.05,2.18
		c-0.71,0.55-1.61,0.82-2.69,0.82c-1.1,0-2.01-0.25-2.74-0.75C414.03,248.04,413.67,247.29,413.67,246.29z"/>
	<path d="M433.93,268.01h-9.62v-5.33h1.43v-13.64h-1.43v-5.33h8.39v18.96h1.23V268.01z"/>
	<path d="M445.43,268.01h-9.62v-5.33h1.43v-13.64h-1.43v-5.33h8.39v18.96h1.23V268.01z"/>
</g>
<polygon class="st0" points="107.72,520.36 125.69,526.9 139.65,502.86 188.88,367.6 161.78,357.74 112.41,493.38 "/>
<polygon class="st0" points="510.49,526.92 528.46,520.37 523.7,492.98 474.47,357.73 447.37,367.59 496.74,503.23 "/>
<polygon class="st0" points="308.52,535.65 327.65,535.65 332.54,508.27 332.54,364.34 303.7,364.34 303.7,508.69 "/>
<path class="st0" d="M501.48,288.17h-11.3c-1.25,0-2.26-1.01-2.26-2.26V280c0-1.25-1.01-2.26-2.26-2.26h-7.74H151.83h-7.74
	c-1.25,0-2.26,1.01-2.26,2.26v5.91c0,1.25-1.01,2.26-2.26,2.26h-11.41c-1.25,0-2.26,1.01-2.26,2.26v35.77
	c0,1.25,1.01,2.26,2.26,2.26h14.96c0.93,0,1.75,0.57,2.1,1.43c6.75,16.34,22.83,27.84,41.61,27.84h256.09
	c18.78,0,34.86-11.5,41.61-27.84c0.35-0.86,1.17-1.43,2.1-1.43h14.85c1.25,0,2.26-1.01,2.26-2.26v-35.77
	C503.74,289.19,502.73,288.17,501.48,288.17z M132.52,316.7v-16.76c0-1.25,1.01-2.26,2.26-2.26h4.78c1.25,0,2.26,1.01,2.26,2.26
	v12.8c0,1.27,0.06,2.52,0.16,3.76c0.11,1.32-0.92,2.46-2.25,2.46h-4.96C133.53,318.96,132.52,317.95,132.52,316.7z M432.91,347.74
	H196.83c-19.91,0-36.8-12.94-42.73-30.86c-0.08-0.24-0.12-0.49-0.12-0.74v-25.7c0-1.25,1.01-2.26,2.26-2.26h321.67v0l0,0
	c-1.25,0-2.26,1.01-2.26,2.26v26c0,0.26-0.04,0.51-0.12,0.75C469.51,334.95,452.71,347.74,432.91,347.74z M494.85,318.96H490
	c-1.33,0-2.36-1.14-2.25-2.46c0.11-1.24,0.16-2.49,0.16-3.76v-12.8c0-1.25,1.01-2.26,2.26-2.26h4.68c1.25,0,2.26,1.01,2.26,2.26
	v16.76C497.11,317.95,496.1,318.96,494.85,318.96z"/>
</svg>
