<?xml version="1.0" encoding="utf-8"?>
<!-- Generator: Adobe Illustrator 26.3.1, SVG Export Plug-In . SVG Version: 6.00 Build 0)  -->
<svg version="1.1" id="Layer_1" xmlns="http://www.w3.org/2000/svg" xmlns:xlink="http://www.w3.org/1999/xlink" x="0px" y="0px"
	 viewBox="0 0 612 792" style="enable-background:new 0 0 612 792;" xml:space="preserve">
<style type="text/css">
	.st0{stroke:#FFFFFF;stroke-miterlimit:10;}
	.st1{fill:#A7A9AC;stroke:#FFFFFF;stroke-miterlimit:10;}
	.st2{fill:#F1F2F2;stroke:#000000;stroke-miterlimit:10;}
	.st3{fill:#F1F2F2;}
</style>
<path class="st0" d="M267.94,208.16c-0.26,1.06-0.83,1.93-1.85,2.52c-1.06,0.61-1.92,0.25-2.77-0.41c-3.4-2.63-6.4-5.71-9.44-8.73
	c-10.4-10.3-20.89-20.49-30.88-31.19c-0.69-0.74-1.34-1.51-1.96-2.31c-1.07-1.37-0.77-2.66,0.34-3.84c1.21-1.29,2.3-0.85,3.47,0.19
	c6.34,5.66,12.37,11.64,18.35,17.67c7.81,7.88,15.56,15.82,23.33,23.75C267.17,206.46,267.95,207.05,267.94,208.16z"/>
<path class="st0" d="M240.76,234.48c-0.01,1.75-0.65,2.61-1.67,3.16c-1.11,0.61-2.14,0.26-3.01-0.54c-3.46-3.2-7-6.31-10.33-9.64
	c-9.64-9.63-19.2-19.35-28.78-29.04c-0.94-0.96-1.77-2.03-2.68-3.01c-1.34-1.45-1.24-2.85,0.09-4.21c1.39-1.42,2.55-0.62,3.7,0.4
	c5.61,4.96,10.9,10.27,16.2,15.56c8.21,8.21,16.35,16.5,24.49,24.78C239.62,232.8,240.72,233.57,240.76,234.48z"/>
<path class="st0" d="M254.38,221.4c-0.16,1.27-0.8,2.1-1.75,2.74c-1.03,0.69-1.89,0.34-2.75-0.33c-3.71-2.91-6.99-6.29-10.33-9.6
	c-9.97-9.87-20.02-19.66-29.62-29.9c-0.8-0.86-1.53-1.79-2.31-2.66c-1.31-1.45-0.86-2.76,0.34-3.97c1.27-1.27,2.39-0.67,3.51,0.32
	c7.6,6.76,14.71,14.03,21.9,21.22c6.47,6.47,12.84,13.05,19.25,19.6C253.35,219.59,254.21,220.32,254.38,221.4z"/>
<path class="st0" d="M229,381.12c0.04,3.16-2.73,5.98-5.88,6.01c-2.95,0.03-5.57-2.56-5.67-5.61c-0.1-3.08,2.8-6.21,5.72-6.17
	C226.27,375.39,228.97,378.05,229,381.12z"/>
<path class="st0" d="M417.47,382.22c0.02,3.17-2.19,5.5-5.23,5.53c-2.81,0.03-5.66-2.62-5.73-5.32c-0.07-2.82,2.51-5.36,5.52-5.45
	C415.21,376.88,417.45,379.04,417.47,382.22z"/>
<ellipse cx="322.61" cy="272.13" rx="216.39" ry="172.17"/>
<path class="st1" d="M338.69,318.67c-4.35-4.43-8.66-8.89-13.09-13.25c-1.16-1.15-1.29-1.86-0.06-3.01
	c2.33-2.18,4.56-4.47,6.75-6.79c1.05-1.12,1.72-1.09,2.81,0.03c5.22,5.35,10.54,10.6,15.84,15.88c0.59,0.59,1.25,1.11,1.87,1.66
	c1.98,2.05,3.97,4.09,5.93,6.16c0.58,0.61,1.21,0.79,2.03,0.66c5.23-0.83,9.23,1.4,12.82,4.97c11.08,11.02,22.26,21.94,33.34,32.97
	c6.25,6.22,12.64,12.32,18.42,19c7.89,9.13,6.17,17.65-4.58,23.15c-0.12,0.06-0.17,0.26-0.25,0.4c-2.19,0-4.38,0-6.57,0
	c-3.1-0.88-5.21-3.19-7.41-5.31c-17.18-16.56-34.28-33.2-50.76-50.48c-3.76-3.94-6.92-8.06-6.08-13.97
	c0.11-0.78-0.16-1.46-0.76-2.04C345.51,325.37,342.11,322.02,338.69,318.67z"/>
<path class="st1" d="M221.01,400.5c-2.02,0-4.04,0-6.06,0c-2.89-0.71-5.51-1.52-7.92-3.73c-5.02-4.59-5.55-15.61-0.24-20.37
	c0.19-0.17,0.35-0.36,0.53-0.54c11.68-11.64,22.86-23.78,34.74-35.23c7.21-6.94,14.44-13.86,21.47-20.97
	c3.91-3.95,8.4-6.4,14.2-5.54c1.36,0.2,2.42-0.55,3.35-1.47c7.66-7.58,15.27-15.2,22.85-22.86c1.65-1.67,1.66-2.67,0.02-4.33
	c-8.46-8.56-16.99-17.05-25.52-25.55c-1.29-1.29-2.86-1.68-4.61-1.62c-4.97,0.18-9.85,1.1-14.78,1.68
	c-7.45,0.89-14.94,1.56-22.37,0.22c-6.86-1.24-12.83-4.53-17.82-9.42c-7.57-7.43-14.43-15.52-21.36-23.53
	c-6.55-7.57-12.82-15.36-18.45-23.67c-2.47-3.64-4.71-7.31-5.52-11.69c0-1.68,0-3.37,0-5.05c0.98-4.32,4.28-7.06,7.12-9.99
	c8.77-9.06,17.77-17.91,26.72-26.81c1.67-1.66,3.62-3.01,5.26-4.71c0.97-1,2.29-1.24,3.54-1.36c4.94-0.45,9.52,0.35,13.83,3.17
	c8.18,5.37,15.79,11.46,23.29,17.68c9.57,7.94,19.04,16.02,27.72,24.97c5.89,6.07,8.57,13.4,9.5,21.72
	c0.97,8.68-0.96,17.06-1.85,25.55c-0.29,2.78-0.23,5.54-0.19,8.31c0.03,1.82,1.18,3.09,2.28,4.37c8.08,7.63,15.74,15.67,23.66,23.46
	c2.85,2.8,3.32,2.82,6.12,0.02c16.48-16.49,32.96-32.98,49.47-49.43c1.77-1.76,2.45-3.49,2.02-6.06c-0.63-3.7-1.02-7.45-0.43-11.27
	c0.9-5.86,4.86-9.72,8.66-13.58c12.33-12.54,24.83-24.92,37.27-37.35c3.03-3.03,5.77-6.34,9.08-9.09c0.58-0.48,1.04-1.12,1.67-1.53
	c1.04-0.68,2.14-1.56,3.46-1.03c1.38,0.56,1.08,1.97,1.1,3.1c0.07,2.69,0.65,5.33,0.54,8.05c-0.09,2.33-0.87,4.14-2.53,5.8
	c-10.37,10.34-20.71,20.71-31.09,31.04c-2.33,2.32-4.52,4.75-6.66,7.24c-2.35,2.71-3.26,5.65-1.81,9.08
	c1.43,3.39,4.06,5.29,7.62,5.92c2.14,0.38,3.97-0.5,5.62-1.75c1.95-1.47,3.71-3.16,5.48-4.84c10.11-9.62,19.98-19.5,29.85-29.37
	c1.73-1.73,3.74-3.13,5.47-4.85c0.86-0.86,1.99-1.24,3.21-1.28c3.37-0.09,6.73-0.14,10.1,0.01c2.43,0.1,2.97,1.07,2.03,3.27
	c-0.44,1.03-1.19,1.81-1.96,2.58c-13.86,13.87-27.65,27.81-41.65,41.54c-3.35,3.28-6.84,6.46-10.37,9.58
	c-4.32,3.82-9.34,4.66-14.74,4.26c-2-0.15-4.02-0.18-6.01-0.64c-1.79-0.42-2.97,0.8-4.13,1.96c-6.67,6.66-13.32,13.34-20,19.99
	c-13.82,13.79-27.55,27.67-41.46,41.38c-5.63,5.55-10.98,11.38-16.87,16.66c-3.75,3.83-7.51,7.66-11.34,11.41
	c-1.18,1.16-1.75,2.41-1.72,4.01c0.02,0.92,0.04,1.85-0.04,2.77c-0.26,2.91-1.18,5.41-3.3,7.66
	c-16.57,17.55-34.06,34.19-50.95,51.42c-2.95,3-6.12,5.76-9.17,8.65C225.24,400.18,222.96,399.74,221.01,400.5z"/>
<g>
	<path class="st2" d="M516.1,276.88h-11.3c-1.25,0-2.26-1.01-2.26-2.26v-5.91c0-1.25-1.01-2.26-2.26-2.26h-7.74H166.45h-7.74
		c-1.25,0-2.26,1.01-2.26,2.26v5.91c0,1.25-1.01,2.26-2.26,2.26h-11.41c-1.25,0-2.26,1.01-2.26,2.26v35.77
		c0,1.25,1.01,2.26,2.26,2.26h14.96c0.93,0,1.75,0.57,2.1,1.43c6.75,16.34,22.83,27.84,41.61,27.84h256.09
		c18.78,0,34.86-11.5,41.61-27.84c0.35-0.86,1.17-1.43,2.1-1.43h14.85c1.25,0,2.26-1.01,2.26-2.26v-35.77
		C518.36,277.89,517.35,276.88,516.1,276.88z M147.15,305.4v-16.76c0-1.25,1.01-2.26,2.26-2.26h4.78c1.25,0,2.26,1.01,2.26,2.26
		v12.8c0,1.27,0.06,2.52,0.16,3.76c0.11,1.32-0.92,2.46-2.25,2.46h-4.96C148.16,307.66,147.15,306.65,147.15,305.4z M447.54,336.44
		H211.45c-19.91,0-36.8-12.94-42.73-30.86c-0.08-0.24-0.12-0.49-0.12-0.74v-25.7c0-1.25,1.01-2.26,2.26-2.26h321.67v0l0,0
		c-1.25,0-2.26,1.01-2.26,2.26v26c0,0.26-0.04,0.51-0.12,0.75C484.13,323.65,467.33,336.44,447.54,336.44z M509.48,307.66h-4.85
		c-1.33,0-2.36-1.14-2.25-2.46c0.11-1.24,0.16-2.49,0.16-3.76v-12.8c0-1.25,1.01-2.26,2.26-2.26h4.68c1.25,0,2.26,1.01,2.26,2.26
		v16.76C511.74,306.65,510.73,307.66,509.48,307.66z"/>
	<g>
		<path class="st3" d="M203.89,243.72h-1.97v-4.61h8.61c0,2.65-0.15,4.63-0.44,5.92c-0.29,1.25-0.89,2.51-1.8,3.79
			c-0.9,1.27-1.98,2.19-3.25,2.78s-2.64,0.87-4.1,0.87c-2.17,0-4.14-0.45-5.91-1.36c-1.78-0.88-3.16-2.35-4.12-4.4
			c-0.98-2.01-1.47-4.27-1.47-6.77c0-3.78,0.99-6.83,2.96-9.15c1.96-2.32,4.36-3.47,7.2-3.47c2.37,0,4.23,0.73,5.58,2.18v-1.69h4.64
			v8.49h-4.64c-0.41-1.05-0.93-1.84-1.58-2.37c-0.65-0.54-1.41-0.8-2.28-0.8c-1.22,0-2.11,0.5-2.69,1.5c-0.56,1-0.84,2.84-0.84,5.52
			c0,2.67,0.3,4.48,0.89,5.43c0.6,0.97,1.47,1.45,2.62,1.45C203.02,247.01,203.89,245.91,203.89,243.72z"/>
		<path class="st3" d="M218.56,239.88l-5.45-0.7c0.6-1.66,1.57-2.83,2.91-3.51c1.32-0.68,3.27-1.01,5.84-1.01
			c0.95,0,1.8,0.04,2.55,0.11s1.42,0.19,2.01,0.34c1.23,0.29,2.14,0.74,2.73,1.34c0.59,0.62,1,1.28,1.23,1.99
			c0.24,0.73,0.36,1.87,0.36,3.42v4.89h1.72v5.33h-8.68v-1.15c-1.2,0.98-2.81,1.47-4.82,1.47c-1.89,0-3.32-0.52-4.28-1.57
			c-0.97-1.05-1.45-2.29-1.45-3.72c0-1.58,0.6-2.88,1.79-3.89c1.18-1.01,2.72-1.52,4.62-1.52c1.73,0,3.11,0.29,4.14,0.86v-0.51
			c0-1.05-0.06-1.78-0.18-2.2c-0.13-0.44-0.42-0.82-0.86-1.13c-0.46-0.3-1-0.45-1.61-0.45C220.01,238.26,219.16,238.8,218.56,239.88
			z M223.77,247.76v-3.09c-0.62-0.42-1.27-0.63-1.97-0.63c-0.61,0-1.09,0.21-1.45,0.63c-0.36,0.43-0.54,0.98-0.54,1.64
			c0,0.69,0.18,1.25,0.55,1.68c0.38,0.44,0.81,0.66,1.3,0.66C222.54,248.65,223.24,248.35,223.77,247.76z"/>
		<path class="st3" d="M245.01,252.09h-10.52v-5.33h1.66v-6.29h-1.69v-5.33h8.66v2.32c0.66-0.71,1.54-1.33,2.62-1.85
			c1.07-0.52,2.09-0.79,3.07-0.79c2.28,0,3.81,1.11,4.58,3.32c2.06-2.21,4.16-3.32,6.3-3.32c1.17,0,2.14,0.31,2.89,0.94
			c0.78,0.64,1.32,1.49,1.63,2.55c0.32,1.09,0.48,2.63,0.48,4.61v3.82h1.77v5.33h-8.73v-7.28c0-1.9-0.12-3.08-0.35-3.54
			s-0.65-0.7-1.25-0.7c-0.76,0-1.52,0.36-2.28,1.08v5.12h1.9v5.33h-8.86v-7.25c0-1.86-0.1-3.04-0.3-3.54
			c-0.2-0.49-0.61-0.73-1.23-0.73c-0.71,0-1.46,0.36-2.24,1.08v5.12h1.88V252.09z"/>
		<path class="st3" d="M279.69,246.73l5.74,0.89c-0.26,0.76-0.62,1.44-1.08,2.03c-0.46,0.6-1.02,1.12-1.69,1.56
			c-1.34,0.91-2.94,1.36-4.8,1.36c-3.13,0-5.48-0.82-7.06-2.46c-1.58-1.63-2.37-3.77-2.37-6.41c0-2.58,0.78-4.74,2.34-6.46
			c1.54-1.72,3.63-2.58,6.27-2.58c2.54,0,4.6,0.81,6.2,2.44c1.57,1.62,2.4,4.08,2.51,7.39h-10.57c0.03,2.75,0.84,4.12,2.44,4.12
			C278.57,248.61,279.27,247.99,279.69,246.73z M275.26,242.29h3.92c0.02-0.35,0.03-0.55,0.03-0.59c0-0.92-0.18-1.68-0.55-2.29
			c-0.37-0.59-0.86-0.89-1.47-0.89c-0.63,0-1.11,0.33-1.44,0.98c-0.33,0.66-0.5,1.48-0.5,2.44
			C275.25,242.07,275.25,242.19,275.26,242.29z"/>
		<path class="st3" d="M304.49,252.09h-8.95v-5.81h1.51v-12.66h-1.51v-5.81h9.22c2.1,0,3.82,0.16,5.15,0.49
			c1.34,0.33,2.6,1,3.78,2.01c1.17,1.02,2.1,2.41,2.77,4.16c0.33,0.84,0.59,1.73,0.76,2.69c0.18,0.95,0.26,1.96,0.26,3
			c0,2.11-0.36,4.03-1.07,5.76c-0.7,1.72-1.59,3.04-2.67,3.96c-1.05,0.92-2.2,1.52-3.46,1.8
			C309.03,251.95,307.11,252.09,304.49,252.09z M304.49,233.61v12.66h0.71c1.75,0,2.89-0.59,3.42-1.76
			c0.52-1.18,0.78-2.65,0.78-4.44c0-1.07-0.11-2.13-0.33-3.18c-0.23-1.05-0.64-1.86-1.22-2.43c-0.57-0.57-1.6-0.86-3.07-0.86H304.49
			z"/>
		<path class="st3" d="M325.46,239.88l-5.45-0.7c0.6-1.66,1.57-2.83,2.91-3.51c1.32-0.68,3.27-1.01,5.84-1.01
			c0.95,0,1.8,0.04,2.55,0.11c0.75,0.08,1.42,0.19,2.01,0.34c1.23,0.29,2.14,0.74,2.73,1.34c0.59,0.62,1,1.28,1.23,1.99
			c0.24,0.73,0.36,1.87,0.36,3.42v4.89h1.72v5.33h-8.68v-1.15c-1.2,0.98-2.81,1.47-4.82,1.47c-1.89,0-3.32-0.52-4.28-1.57
			c-0.97-1.05-1.45-2.29-1.45-3.72c0-1.58,0.6-2.88,1.78-3.89c1.18-1.01,2.72-1.52,4.62-1.52c1.73,0,3.11,0.29,4.14,0.86v-0.51
			c0-1.05-0.06-1.78-0.18-2.2c-0.13-0.44-0.41-0.82-0.86-1.13c-0.46-0.3-1-0.45-1.61-0.45C326.92,238.26,326.06,238.8,325.46,239.88
			z M330.68,247.76v-3.09c-0.62-0.42-1.27-0.63-1.97-0.63c-0.61,0-1.09,0.21-1.45,0.63c-0.36,0.43-0.54,0.98-0.54,1.64
			c0,0.69,0.18,1.25,0.55,1.68c0.38,0.44,0.81,0.66,1.3,0.66C329.44,248.65,330.14,248.35,330.68,247.76z"/>
		<path class="st3" d="M348.98,259.86h-5.87v-5.15h2.26l0.68-1.73l-5.15-12.5h-1.04v-5.33H349v5.33h-1.48l2.34,6.65l2.16-6.65h-1.3
			v-5.33h6.93v5.33h-1.34L348.98,259.86z"/>
		<path class="st3" d="M381.09,243.72h-1.97v-4.61h8.61c0,2.65-0.15,4.63-0.44,5.92c-0.29,1.25-0.89,2.51-1.8,3.79
			c-0.9,1.27-1.98,2.19-3.25,2.78s-2.64,0.87-4.1,0.87c-2.17,0-4.14-0.45-5.91-1.36c-1.78-0.88-3.16-2.35-4.12-4.4
			c-0.98-2.01-1.47-4.27-1.47-6.77c0-3.78,0.99-6.83,2.96-9.15c1.96-2.32,4.36-3.47,7.2-3.47c2.37,0,4.23,0.73,5.58,2.18v-1.69h4.64
			v8.49h-4.64c-0.41-1.05-0.93-1.84-1.59-2.37c-0.65-0.54-1.41-0.8-2.28-0.8c-1.22,0-2.11,0.5-2.69,1.5c-0.56,1-0.84,2.84-0.84,5.52
			c0,2.67,0.3,4.48,0.89,5.43c0.6,0.97,1.47,1.45,2.62,1.45C380.22,247.01,381.09,245.91,381.09,243.72z"/>
		<path class="st3" d="M400.92,252.09H390.1v-5.33h1.83v-6.29h-1.83v-5.33h8.33v4.24c0.31-1.06,0.8-1.97,1.45-2.74
			c0.63-0.76,1.26-1.25,1.91-1.48c0.62-0.22,1.53-0.33,2.73-0.33v7.46c-0.16-0.01-0.35-0.02-0.58-0.02c-1.42,0-2.48,0.18-3.17,0.54
			c-0.72,0.37-1.21,0.86-1.47,1.47c-0.27,0.63-0.41,1.46-0.41,2.48h2.03V252.09z"/>
		<path class="st3" d="M415.76,252.09h-9.51v-5.33h1.38v-6.29h-1.38v-5.33h8.35v11.61h1.16V252.09z M407.05,230.37
			c0-0.92,0.37-1.66,1.12-2.22c0.74-0.56,1.65-0.84,2.74-0.84c1.12,0,2.02,0.29,2.7,0.87c0.67,0.59,1.01,1.32,1.01,2.17
			c0,0.92-0.35,1.65-1.05,2.18c-0.71,0.55-1.61,0.82-2.69,0.82c-1.1,0-2.01-0.25-2.74-0.75
			C407.42,232.11,407.05,231.37,407.05,230.37z"/>
		<path class="st3" d="M427.32,252.09h-9.62v-5.33h1.43v-13.64h-1.43v-5.33h8.39v18.96h1.23V252.09z"/>
		<path class="st3" d="M438.82,252.09h-9.62v-5.33h1.43v-13.64h-1.43v-5.33h8.39v18.96h1.23V252.09z"/>
	</g>
</g>
</svg>
